# xmcd
#
# Track frame offsets:
#       150
#       14176
#       26711
#       38804
#       49786
#       62359
#       74689
#       85514
#       98945
#       111966
#       126472
#       147310
#       168746
#       181123
#       197138
#       210516
#       238797
#       253350
#       293467
#
# Disc length: 4105 seconds
#
# Revision: 3
# Processed by: cddbd v1.4PL0 Copyright (c) Steve Scherf et al.
# Submitted via: MusiCat 1.1b3
#
DISCID=20100713
DTITLE=Marvin Gaye - The Marvin Gaye Collection Disc 3 - Rare Live and Unrelease
DTITLE=d [CD3]
DYEAR=1900
DGENRE=
TTITLE0=Let Your Conscience By Your Guide
TTITLE1=Never Let You Go (sha Lu Bop)
TTITLE2=It's Party Time
TTITLE3=Christmas Song
TTITLE4=Down and Under When You Limbo
TTITLE5=My Girl
TTITLE6=It's Not Unusual
TTITLE7=Sunny
TTITLE8=Sweeter as Days Go By
TTITLE9=Sweet Thing
TTITLE10=I Love You Secretly (aka My Last Chance)
TTITLE11=I Want to Come Home By Christmas
TTITLE12=5, 10, 15, 20 Years of Love
TTITLE13=You're My Everything
TTITLE14=Come Get to This (live)
TTITLE15=Distant Love (live)
TTITLE16=Jan (live)
TTITLE17=Medley" 60's Hits (live)
TTITLE18=Star Spangled Banner (live)
EXTD=0\n\n\n
EXTT0=
EXTT1=
EXTT2=
EXTT3=
EXTT4=
EXTT5=
EXTT6=
EXTT7=
EXTT8=
EXTT9=
EXTT10=
EXTT11=
EXTT12=
EXTT13=
EXTT14=
EXTT15=
EXTT16=
EXTT17=
EXTT18=
PLAYORDER=
